<?xml version="1.0" encoding="UTF-8"?>
<svg id="Layer_1" data-name="Layer 1" xmlns="http://www.w3.org/2000/svg" version="1.1" viewBox="0 0 1367.6 769.8">
  <defs>
    <style>
      .cls-1 {
        fill: #fff;
        stroke-width: 0px;
      }
    </style>
  </defs>
  <path class="cls-1" d="M405.3,273.9h-188.9v75.2h14.3v-60.9h174.6c14.7,0,28.1,12,28.1,25.3v117.7h-69.1c-45.2,0-82-36.8-82-82h-14.3c0,53.1,43.2,96.3,96.3,96.3h0s83.4,0,83.4,0v-131.9c0-21.1-19.8-39.6-42.4-39.6"/>
  <path class="cls-1" d="M364.3,379.6c-16.8,0-30.5-13.7-30.5-30.5h-14.3c0,24.7,20.1,44.8,44.8,44.8v-14.3Z"/>
  <path class="cls-1" d="M230.7,349.1h-14.3c0,81.5,66.3,147.9,147.9,147.9v-14.3c-73.7,0-133.6-59.9-133.6-133.6"/>
  <path class="cls-1" d="M1117.2,241.1h18.3s-.2,98.6-.2,98.6c0,2.2.2,3.2,2.9,3.2h11.4s0,15.1,0,15.1h-17.6c-11.6,0-14.9-7.5-14.9-18.2l.2-98.7ZM1053.1,344.6c11.4,0,22.7-9.5,24.2-23.6h-15.7c-11.9,0-20.4,4.2-20.4,13,0,6.7,4.9,10.7,11.9,10.7M1060.6,308.2h16.7s0-5.4,0-5.4c0-8.7-5.2-15.4-15.6-15.4-9.9,0-18.8,6.8-23.2,16.5l-15.4-7.5c7.2-16.4,21.7-25.7,38.8-25.7,19.5,0,33.7,11.5,33.6,32.2v37.2c0,1.9.2,2.7,2.3,2.7h6.4s0,15.1,0,15.1h-11.6c-7.3,0-12.2-4.3-12.2-13.6v-4.1s-.8,0-.8,0c-5.7,12.4-17.4,19.5-30.2,19.5-13.7,0-26.5-8-26.5-24.7,0-16.7,16.3-26.8,37.7-26.8M935.1,272.6h16.7s0,16.1,0,16.1h.3c5.7-10.2,13.9-18.4,28.2-18.4,18.6,0,28.7,14,28.7,33.7v53.7c0,0-18.4,0-18.4,0v-50.9c.1-11.6-4.2-20.3-15.6-20.4-14.3,0-21.6,14-21.7,27.1v44c0,0-18.4,0-18.4,0v-85ZM878.4,343.2c15.3,0,27.2-12.5,27.2-28.2,0-15.6-11.9-28.2-27.1-28.2-15.4,0-27.2,12.4-27.2,28.1,0,15.6,11.7,28.3,27.1,28.3M878.9,270.1c25.6,0,44.3,20.4,44.3,44.9,0,24.6-20.3,44.9-44.7,44.9-24.5,0-44.6-20.4-44.6-45.1,0-24.5,20.6-44.8,45.1-44.7M765.8,329.6c7,8.6,15.6,15,26.7,15,7.8,0,14.3-3,14.3-9.5,0-6.8-8.1-10.2-17.6-13.1-13-4.2-29.1-10.1-29-26.3,0-14,14-25.9,31.7-25.9,18.3,0,28.9,10.5,33.8,21.7l-13.4,6.8c-4.1-9.2-13-13.4-20.5-13.4-7.6,0-13.4,3.9-13.4,9.8,0,7.2,7,9.5,16.7,12.6,13.3,4.2,30,9.3,30,26.1,0,16.8-16.1,26.2-33.3,26.2-15.4,0-29.5-8-37.5-20.4l11.5-9.7ZM705.8,272.2h16.7s0,15.6,0,15.6h.5c4.2-11,10.2-15.6,22.3-15.5h5.6s0,18.3,0,18.3h-11.8c-10.5,0-15,6.2-15,17.6v49.1c0,0-18.4,0-18.4,0v-85ZM673.4,308c-.3-11.9-7.4-21.3-21.3-21.3-11.9,0-22.6,8.5-24,21.3h45.3ZM653,270c23.5,0,38.3,17.9,38.2,42.2v10.2s-63.1-.1-63.1-.1c1.4,12.1,12.7,20.4,26.8,20.4,10.6,0,18.3-5.4,23.9-11.1l10.8,10.8c-9.2,11.6-22.3,17-36,16.9-22.2,0-43.5-16-43.5-44.1,0-25.3,19.2-45.3,42.8-45.2M558.3,341.8c13.7,0,22.9-10.9,22.9-26.8,0-14.6-7.6-28.5-22.2-28.5-14.3,0-22.9,12.8-22.9,27.8,0,14.9,7.6,27.5,22.2,27.5M517.3,271.8h15.9s.3,16.1.3,16.1h.6c5.7-10.8,16.2-18.1,28.8-18.1,23.5,0,37,20.1,37,44.6,0,24.2-13.9,45-37.3,44.9-14.8,0-22.4-8-26.5-16.4h-.6v43.4c0,0-18.4,0-18.4,0l.2-114.4Z"/>
  <path class="cls-1" d="M556.4,491.4c17.6,0,30.3-13.5,30.3-37.5s-11.6-38.3-29.6-38.3-31.3,17.9-31.3,38.3,10.3,37.5,30.6,37.5M517,410h8.1v19.2h.6c4.4-11.2,14.3-21.7,31.4-21.7s38.4,19.1,38.4,46.3-16.9,45.8-38.9,45.8-26.7-10.4-30.8-22h-.8v52.1h-8.1v-119.7Z"/>
  <path class="cls-1" d="M637.2,490.8c15.3,0,29.2-14,31.1-34.5h-21.8c-15.6,0-28.8,6.4-28.8,18.6s8.8,16,19.5,16M608.7,474.8c0-16.1,15.5-25.9,37.5-25.9h22.1v-11.1c0-12.9-8-21.7-22.1-21.7s-24.1,7-29.6,21.5l-7.8-3.7c6.5-16.4,21.3-26.2,37.8-26.2s30.6,13.5,30.6,30.1v48.5c0,1.6,1,2.8,2,2.8h7.8v8.1h-8.6c-7.2,0-9.6-4.4-9.6-12.2l.2-8.6h-1.3c-5.4,13.2-16.6,22.8-31.6,22.8s-27.2-8.3-27.2-24.4"/>
  <path class="cls-1" d="M700.9,410.2l29.3,79.8h1.1l29.6-79.8h9.1l-39.4,102.8c-3.7,9.6-7.8,14.5-15.1,14.5h-15.6v-8.1h14.5c4.4,0,7-3.6,9.1-9l5-13h-4.9l-31.9-87.1h9.1Z"/>
</svg>